<svg width="159" height="179" viewBox="0 0 159 179" fill="none" xmlns="http://www.w3.org/2000/svg">
<path d="M70.2725 4.29827C75.3573 -0.825494 83.6427 -0.825498 88.7275 4.29826L111.501 27.2469C113.132 28.8906 115.173 30.0687 117.412 30.6595L148.673 38.9079C155.653 40.7495 159.796 47.9249 157.901 54.8903L149.413 86.0873C148.806 88.3218 148.806 90.6781 149.413 92.9126L157.901 124.11C159.796 131.075 155.653 138.25 148.673 140.092L117.412 148.34C115.173 148.931 113.132 150.109 111.501 151.753L88.7275 174.702C83.6427 179.825 75.3573 179.825 70.2725 174.702L47.4987 151.753C45.8676 150.109 43.8269 148.931 41.5879 148.34L10.3269 140.092C3.34723 138.25 -0.795512 131.075 1.09943 124.11L9.5866 92.9126C10.1945 90.6781 10.1945 88.3218 9.5866 86.0873L1.09943 54.8903C-0.79551 47.925 3.34722 40.7495 10.3269 38.9079L41.5879 30.6595C43.8269 30.0687 45.8676 28.8906 47.4987 27.2469L70.2725 4.29827Z" fill="#C4C4C4"/>
</svg>
